<svg width="1em" height="1em" viewBox="0 0 1025 1024" fill="none" xmlns="http://www.w3.org/2000/svg">
<path d="M585.079 249.971C601.638 221.268 638.331 211.424 667.034 227.984L670.025 229.709C698.727 246.269 708.571 282.961 692.012 311.664L425.569 773.494C409.01 802.196 372.317 812.04 343.614 795.481L340.623 793.755C311.921 777.196 302.077 740.504 318.636 711.801L585.079 249.971Z" fill="#FFAB00"/>
<rect x="864.117" y="198.034" width="123.453" height="653.178" rx="60" transform="rotate(30 864.117 198.034)" fill="#FFAB00"/>
<path d="M243.156 418.916H324.616C355.487 418.916 374.722 452.404 359.168 479.07L340.18 511.624L325.158 535.47C321.042 542.004 320.519 550.179 323.77 557.183L436.937 753.809L433.602 759.922L429.152 768.128C422.487 779.375 414.83 788.575 404.197 794.893C369.3 815.218 323.148 802.618 302.809 768.128L99.5138 418.916H243.156Z" fill="#EC2D36"/>
<path d="M412.72 338.047H195.894H52.4353L43.9394 323.453C37.4334 312.484 34 299.964 34 287.209C34 274.453 37.4334 261.934 43.9394 250.965C50.3792 239.923 59.6004 230.764 70.6827 224.402C81.7651 218.04 94.321 214.697 107.098 214.707H513.078L455.968 313.139C447.022 328.557 430.545 338.047 412.72 338.047Z" fill="#EC2D36"/>
</svg>
